<?xml version="1.0" encoding="UTF-8" standalone="no"?>
<!DOCTYPE svg PUBLIC "-//W3C//DTD SVG 1.1//EN" "http://www.w3.org/Graphics/SVG/1.1/DTD/svg11.dtd">
<svg width="100%" height="100%" viewBox="0 0 512 97" version="1.1" xmlns="http://www.w3.org/2000/svg" xmlns:xlink="http://www.w3.org/1999/xlink" xml:space="preserve" xmlns:serif="http://www.serif.com/" style="fill-rule:evenodd;clip-rule:evenodd;stroke-linejoin:round;stroke-miterlimit:2;">
    <g transform="matrix(1,0,0,1,-144.085,-251.928)">
        <g transform="matrix(4.16392,0,0,4.16392,101.155,-114.198)">
            <path d="M12.16,105.37C13.591,106.967 15.599,107.932 17.74,108.05C19.81,108.05 21.55,106.79 21.55,104.74C21.55,100.08 10.81,100.8 10.81,93.88C10.81,90.54 13.74,87.93 17.93,87.93C20.29,87.93 24.26,89 24.26,92.02L24.26,93.85L21.36,93.85L21.36,92.85C21.36,91.68 19.69,90.85 17.93,90.85C15.53,90.85 14.02,92.17 14.02,93.85C14.02,98.36 24.73,97.35 24.73,104.65C24.73,108.05 22.08,110.98 17.67,110.98C14.861,110.972 12.184,109.772 10.31,107.68L12.16,105.37Z" style="fill:rgb(0,167,225);fill-rule:nonzero;"/>
            <path d="M25.58,107.83L26.94,107.83C26.961,107.832 26.983,107.833 27.004,107.833C27.35,107.833 27.634,107.549 27.634,107.203C27.634,107.179 27.633,107.154 27.63,107.13L27.63,88.3L30.49,88.3L40.38,102.38C41.2,103.58 42.24,105.38 42.24,105.38L42.3,105.38C42.177,104.384 42.103,103.383 42.08,102.38L42.08,90.32C42.08,88.9 42.68,88.32 44.13,88.32L47.28,88.32L47.28,91L45.92,91C45.891,90.996 45.863,90.994 45.834,90.994C45.499,90.994 45.224,91.269 45.224,91.604C45.224,91.633 45.226,91.661 45.23,91.69L45.23,110.52L42.39,110.52L32.48,96.46C31.66,95.26 30.65,93.46 30.65,93.46L30.59,93.46C30.59,93.46 30.78,95.25 30.78,96.46L30.78,108.52C30.78,109.94 30.18,110.52 28.78,110.52L25.58,110.52L25.58,107.83Z" style="fill:rgb(0,167,225);fill-rule:nonzero;"/>
            <path d="M59.13,87.93C59.2,87.929 59.27,87.928 59.34,87.928C65.501,87.928 70.57,92.997 70.57,99.158C70.57,99.192 70.57,99.226 70.57,99.26C70.573,99.373 70.575,99.485 70.575,99.598C70.575,105.863 65.42,111.018 59.155,111.018C52.89,111.018 47.735,105.863 47.735,99.598C47.735,99.485 47.737,99.373 47.74,99.26C47.739,99.216 47.739,99.172 47.739,99.128C47.739,92.984 52.795,87.928 58.939,87.928C59.003,87.928 59.066,87.929 59.13,87.93ZM59.13,107.93C63.643,107.82 67.296,104.077 67.296,99.562C67.296,99.455 67.294,99.347 67.29,99.24C67.29,94.775 63.615,91.1 59.15,91.1C54.685,91.1 51.01,94.775 51.01,99.24C51,104.17 54.63,108 59.13,108L59.13,107.93Z" style="fill:rgb(0,167,225);fill-rule:nonzero;"/>
            <path d="M70.53,107.83L71.6,107.83C72.04,107.83 72.26,107.57 72.29,107.13L73.81,88.3L77.05,88.3L82.28,100.08C82.81,101.28 83.38,102.88 83.38,102.88L83.44,102.88C83.44,102.88 84.01,101.28 84.54,100.08L89.77,88.3L93,88.3L94.52,107.13C94.52,107.57 94.77,107.83 95.21,107.83L96.21,107.83L96.21,110.53L93.41,110.53C91.99,110.53 91.49,109.94 91.41,108.53L90.5,96.78C90.4,95.46 90.43,93.51 90.43,93.51L90.4,93.51C90.4,93.51 89.77,95.59 89.24,96.78L84.73,106.55L82.09,106.55L77.58,96.78C77.05,95.62 76.39,93.48 76.39,93.48L76.33,93.48C76.33,93.48 76.33,95.48 76.26,96.78L75.38,108.53C75.29,109.95 74.78,110.53 73.38,110.53L70.53,110.53L70.53,107.83Z" style="fill:rgb(0,167,225);fill-rule:nonzero;"/>
            <path d="M98.08,91L96,91L96,88.3L109.1,88.3C110.52,88.3 111.1,88.9 111.1,90.3L111.1,93.1L108.24,93.1L108.24,91.7C108.243,91.675 108.245,91.65 108.245,91.624C108.245,91.284 107.965,91.004 107.625,91.004C107.596,91.004 107.568,91.006 107.54,91.01L101.21,91.01L101.21,98.01L109,98.01L109,100.72L101.22,100.72L101.22,107.17C101.218,107.191 101.217,107.212 101.217,107.233C101.217,107.584 101.506,107.873 101.857,107.873C101.878,107.873 101.899,107.872 101.92,107.87L108.4,107.87C108.421,107.872 108.443,107.873 108.464,107.873C108.81,107.873 109.094,107.589 109.094,107.243C109.094,107.219 109.093,107.194 109.09,107.17L109.09,105.76L112,105.76L112,108.56C112,109.98 111.4,110.56 110,110.56L100.1,110.56C98.68,110.56 98.1,109.97 98.1,108.56L98.08,91Z" style="fill:rgb(0,167,225);fill-rule:nonzero;"/>
            <path d="M115,91L113,91L113,88.3L122,88.3C128.76,88.3 133.23,92.37 133.23,99.39C133.23,106.41 128.76,110.53 122,110.53L117,110.53C115.58,110.53 115,109.94 115,108.53L115,91ZM118.85,107.82L121.74,107.82C126.69,107.82 129.93,104.82 129.93,99.38C129.93,93.94 126.67,91 121.76,91L118.17,91L118.17,107.12C118.167,107.144 118.166,107.169 118.166,107.193C118.166,107.544 118.455,107.833 118.806,107.833C118.827,107.833 118.849,107.832 118.87,107.83L118.85,107.82Z" style="fill:rgb(0,167,225);fill-rule:nonzero;"/>
        </g>
    </g>
</svg>
